<svg width="32" height="32" viewBox="0 0 32 32" fill="none" xmlns="http://www.w3.org/2000/svg">
<g clip-path="url(#clip0_16_106)">
<path d="M31.997 15.999C31.997 7.163 24.834 0 15.998 0C7.16199 0 -0.00100708 7.163 -0.00100708 15.999C-0.00100708 23.984 5.84999 30.603 13.498 31.803V20.623H9.43599V15.998H13.498V12.473C13.498 8.463 15.887 6.248 19.541 6.248C21.291 6.248 23.122 6.561 23.122 6.561V10.498H21.105C19.118 10.498 18.498 11.731 18.498 12.996V15.997H22.935L22.226 20.622H18.498V31.802C26.147 30.602 31.997 23.983 31.997 15.998V15.999Z" fill="#1877F2"/>
</g>
<defs>
<clipPath id="clip0_16_106">
<rect width="32" height="32" fill="white"/>
</clipPath>
</defs>
</svg>
