<svg width="25" height="20" viewBox="0 0 25 20" fill="none" xmlns="http://www.w3.org/2000/svg">
<path d="M12.748 8.5675H24.3092C24.4204 9.075 24.5 9.57 24.5 10.2342C24.5 15.9375 19.8114 20 12.747 20C5.9693 20 0.5 15.5342 0.5 10C0.5 4.46583 5.9693 0 12.747 0C16.0475 0 18.8225 0.99 20.9596 2.6175L17.6264 5.235C16.717 4.51917 15.1229 3.68583 12.747 3.68583C8.56872 3.68583 5.15589 6.51167 5.15589 10.0008C5.15589 13.49 8.56872 16.3158 12.747 16.3158C17.5947 16.3158 19.4124 13.4775 19.7002 12.0058H12.747V8.56833L12.748 8.5675Z" fill="#fff"/>
</svg>
