<svg width="32" height="32" viewBox="0 0 32 32" fill="none" xmlns="http://www.w3.org/2000/svg">
<g clip-path="url(#clip0_16_108)">
<path d="M16 0C11.653 0 11.111 0.02 9.404 0.096C7.7 0.176 6.54 0.444 5.52 0.84C4.468 1.248 3.575 1.796 2.685 2.685C1.795 3.574 1.246 4.466 0.84 5.52C0.444 6.54 0.175 7.7 0.096 9.404C0.016 11.111 0 11.653 0 16C0 20.347 0.02 20.889 0.096 22.596C0.176 24.299 0.444 25.46 0.84 26.48C1.248 27.531 1.796 28.425 2.685 29.315C3.574 30.203 4.466 30.754 5.52 31.16C6.541 31.555 7.701 31.825 9.404 31.904C11.111 31.984 11.653 32 16 32C20.347 32 20.889 31.98 22.596 31.904C24.299 31.824 25.46 31.555 26.48 31.16C27.531 30.752 28.425 30.203 29.315 29.315C30.203 28.426 30.754 27.535 31.16 26.48C31.555 25.46 31.825 24.299 31.904 22.596C31.984 20.889 32 20.347 32 16C32 11.653 31.98 11.111 31.904 9.404C31.824 7.701 31.555 6.539 31.16 5.52C30.752 4.468 30.203 3.575 29.315 2.685C28.426 1.796 27.535 1.246 26.48 0.84C25.46 0.444 24.299 0.175 22.596 0.096C20.889 0.016 20.347 0 16 0V0ZM16 2.88C20.271 2.88 20.78 2.901 22.467 2.975C24.027 3.048 24.874 3.307 25.436 3.528C26.185 3.817 26.716 4.164 27.279 4.723C27.838 5.283 28.184 5.815 28.474 6.564C28.693 7.127 28.954 7.973 29.025 9.533C29.101 11.221 29.118 11.728 29.118 16C29.118 20.272 29.098 20.78 29.019 22.467C28.938 24.027 28.678 24.874 28.458 25.436C28.159 26.185 27.819 26.716 27.259 27.279C26.7 27.838 26.16 28.184 25.419 28.474C24.859 28.693 23.999 28.954 22.439 29.025C20.74 29.101 20.24 29.118 15.96 29.118C11.679 29.118 11.179 29.098 9.481 29.019C7.92 28.938 7.06 28.678 6.5 28.458C5.741 28.159 5.22 27.819 4.661 27.259C4.1 26.7 3.741 26.16 3.461 25.419C3.241 24.859 2.982 23.999 2.901 22.439C2.841 20.759 2.82 20.24 2.82 15.98C2.82 11.719 2.841 11.199 2.901 9.499C2.982 7.939 3.241 7.08 3.461 6.52C3.741 5.76 4.1 5.24 4.661 4.679C5.22 4.12 5.741 3.76 6.5 3.482C7.06 3.261 7.901 3.001 9.461 2.921C11.161 2.861 11.661 2.841 15.94 2.841L16 2.88ZM16 7.784C11.46 7.784 7.784 11.464 7.784 16C7.784 20.54 11.464 24.216 16 24.216C20.54 24.216 24.216 20.536 24.216 16C24.216 11.46 20.536 7.784 16 7.784ZM16 21.333C13.053 21.333 10.667 18.946 10.667 16C10.667 13.054 13.054 10.667 16 10.667C18.946 10.667 21.333 13.054 21.333 16C21.333 18.946 18.946 21.333 16 21.333ZM26.461 7.46C26.461 8.52 25.6 9.38 24.541 9.38C23.481 9.38 22.621 8.519 22.621 7.46C22.621 6.401 23.482 5.541 24.541 5.541C25.598 5.54 26.461 6.401 26.461 7.46Z" fill="#E4405F"/>
</g>
<defs>
<clipPath id="clip0_16_108">
<rect width="32" height="32" fill="white"/>
</clipPath>
</defs>
</svg>
