<svg width="25" height="20" viewBox="0 0 25 20" fill="none" xmlns="http://www.w3.org/2000/svg">
<path d="M2.68182 5.46778L11.8749 12.0222C12.2458 12.2833 12.7422 12.2956 13.1262 12.0222L22.3182 5.46778V16.6667C22.3182 16.9689 22.1982 17.2456 21.9964 17.45C21.7945 17.6544 21.524 17.7778 21.2273 17.7778H3.77273C3.476 17.7778 3.20436 17.6556 3.00364 17.45C2.80291 17.2444 2.68182 16.9689 2.68182 16.6667V5.46778ZM0.5 3.31444C0.5 3.32556 0.5 3.33667 0.5 3.34778V16.6667C0.5 17.5867 0.870909 18.4211 1.46 19.0222C2.04909 19.6233 2.86945 20 3.77273 20H21.2273C22.1305 20 22.9498 19.6222 23.54 19.0222C24.1302 18.4222 24.5 17.5867 24.5 16.6667V3.34667C24.5 3.33556 24.5 3.32444 24.5 3.31333C24.4945 2.40111 24.1258 1.57444 23.54 0.977778C22.9498 0.377778 22.1305 0 21.2273 0H3.77273C2.86945 0 2.05018 0.377778 1.46 0.977778C0.874182 1.57444 0.505455 2.40111 0.5 3.31444ZM22.2025 2.83778L12.5 9.75445L2.79745 2.83778C2.84982 2.73111 2.91964 2.63444 3.00255 2.55C3.20436 2.34444 3.476 2.22222 3.77273 2.22222H21.2273C21.524 2.22222 21.7956 2.34444 21.9964 2.55C22.0793 2.63444 22.1491 2.73222 22.2015 2.83778H22.2025Z" fill="#808080"/>
</svg>
