<svg width="32" height="32" viewBox="0 0 32 32" fill="none" xmlns="http://www.w3.org/2000/svg">
<g clip-path="url(#clip0_16_110)">
<path d="M23.331 19.176C22.93 18.976 20.975 18.02 20.611 17.888C20.247 17.753 19.98 17.688 19.714 18.088C19.451 18.481 18.686 19.373 18.455 19.637C18.222 19.897 17.99 19.917 17.594 19.737C17.194 19.537 15.91 19.117 14.39 17.757C13.206 16.697 12.411 15.397 12.177 14.997C11.945 14.597 12.152 14.377 12.35 14.177C12.531 13.997 12.751 13.717 12.951 13.48C13.146 13.239 13.21 13.079 13.347 12.819C13.48 12.539 13.412 12.319 13.314 12.12C13.214 11.92 12.418 9.96 12.085 9.179C11.765 8.4 11.436 8.499 11.189 8.499C10.96 8.479 10.694 8.479 10.428 8.479C10.162 8.479 9.73101 8.578 9.36501 8.958C9.00101 9.358 7.97201 10.318 7.97201 12.258C7.97201 14.198 9.39901 16.078 9.59701 16.358C9.79601 16.618 12.404 20.618 16.397 22.338C17.349 22.738 18.09 22.978 18.669 23.177C19.621 23.48 20.489 23.437 21.176 23.338C21.941 23.217 23.532 22.377 23.864 21.437C24.204 20.497 24.204 19.717 24.104 19.537C24.005 19.357 23.744 19.257 23.344 19.077L23.331 19.176ZM16.081 29H16.06C13.7 29 11.361 28.36 9.32001 27.16L8.84001 26.875L3.84001 28.175L5.18001 23.315L4.86101 22.815C3.54101 20.714 2.84001 18.294 2.84001 15.802C2.84001 8.542 8.78001 2.622 16.096 2.622C19.635 2.622 22.956 4.002 25.457 6.502C27.957 8.981 29.336 12.302 29.336 15.822C29.331 23.081 23.389 29.002 16.089 29.002L16.081 29ZM27.36 4.599C24.32 1.66 20.32 0 16.06 0C7.28401 0 0.139007 7.112 0.135007 15.857C0.135007 18.652 0.867007 21.377 2.26201 23.784L0.00100708 32L8.44801 29.797C10.776 31.054 13.395 31.722 16.061 31.726H16.069C24.849 31.726 31.997 24.611 32.001 15.865C32.001 11.63 30.348 7.645 27.341 4.65L27.36 4.599Z" fill="#25D366"/>
</g>
<defs>
<clipPath id="clip0_16_110">
<rect width="32" height="32" fill="white"/>
</clipPath>
</defs>
</svg>
